<svg width="64" height="64" viewBox="0 0 64 64" fill="none" xmlns="http://www.w3.org/2000/svg">
<g id="location">
<path id="Subtract" fill-rule="evenodd" clip-rule="evenodd" d="M32 58.6654C41 58.6654 56 42.1269 56 29.0357C56 15.9445 45.2548 5.33203 32 5.33203C18.7452 5.33203 8 15.9445 8 29.0357C8 42.1269 23 58.6654 32 58.6654ZM32 37.332C36.4183 37.332 40 33.7503 40 29.332C40 24.9138 36.4183 21.332 32 21.332C27.5817 21.332 24 24.9138 24 29.332C24 33.7503 27.5817 37.332 32 37.332Z" fill="#141718"/>
<g id="icon">
<circle id="Ellipse 800" cx="32" cy="29.6523" r="20" fill="#141718"/>
<g id="outline/store 01">
<path id="Rectangle 743" d="M40 29.6523V35.6523C40 37.8615 38.2091 39.6523 36 39.6523H28C25.7909 39.6523 24 37.8615 24 35.6523V29.6523" stroke="#FEFEFE" stroke-width="1.5" stroke-linejoin="round"/>
<path id="Vector" d="M36.7687 19.6523H27.2313C25.4139 19.6523 23.7796 20.8971 23.1047 22.7954L22.3467 24.9272C22.1173 25.5725 21.9587 26.2631 22.126 26.9272C22.5224 28.5001 23.8082 29.6523 25.3333 29.6523C27.1743 29.6523 28.6667 27.9734 28.6667 25.9023C28.6667 27.9734 30.159 29.6523 32 29.6523C33.8409 29.6523 35.3333 27.9734 35.3333 25.9023C35.3333 27.9734 36.8257 29.6523 38.6667 29.6523C40.1918 29.6523 41.4776 28.5001 41.874 26.9272C42.0413 26.2631 41.8827 25.5725 41.6533 24.9272L40.8953 22.7954C40.2204 20.8971 38.5861 19.6523 36.7687 19.6523Z" stroke="#FEFEFE" stroke-width="1.5" stroke-linejoin="round"/>
<path id="Rectangle 744" d="M29 36.6523C29 34.9955 30.3431 33.6523 32 33.6523C33.6569 33.6523 35 34.9955 35 36.6523V39.6523H29V36.6523Z" stroke="#FEFEFE" stroke-width="1.5" stroke-linejoin="round"/>
</g>
</g>
</g>
</svg>
